Format;Avi

File Size:700mb

Video: ID ID : 0
Format : MPEG-4 Visual
Format profile : Simple@L3
Format settings, BVOP : No
Format settings, QPel : No
Format settings, GMC : No warppoints
Format settings, Matrix : Default (H.263)
Codec ID : XVID
Codec ID/Hint : XviD
Duration : 2h 7mn
Bit rate : 840 Kbps
Width : 696 pixels
Height : 388 pixels
Display aspect ratio : 16:9
Frame rate : 23.976 fps
Color space : YUV
Chroma subsampling : 4:2:0
Bit depth : 8 bits
Scan type : Progressive
Bits/(Pixel*Frame) : 0.099
Stream size : 582 MiB (83%)
Writing library : XviD 1.2.1 (UTC 2008-12-04)


Audio: ID : 1
Format : MPEG Audio
Format version : Version 1
Format profile : Layer 3
Mode : Joint stereo
Mode extension : MS Stereo
Codec ID : 55
Codec ID/Hint : MP3
Duration : 2h 7mn
Bit rate mode : Constant
Bit rate : 128 Kbps
Channel(s) : 2 channels
Sampling rate : 48.0 KHz
Stream size : 116 MiB (17%)
Alignment : Split accross interleaves
Interleave, duration : 500 ms (11.99 video frames)
Interleave, preload duration : 500 ms
:


Duration:2:07

Release Date:2010

Language:English


Plot: Each of the women portray one of the characters represented in the collection of twenty poems, revealing different issues that impact women in general and women of color in particular.

Cast: Kimberly Elise ...
Crystal / Brown
Janet Jackson Janet Jackson ...
Jo / Red
Loretta Devine Loretta Devine ...
Juanita / Green
Thandie Newton Thandie Newton ...
Tangie / Orange
Anika Noni Rose Anika Noni Rose ...
Yasmine / Yellow
Kerry Washington Kerry Washington ...
Kelly / Blue
Tessa Thompson Tessa Thompson ...
Nyla / Purple
Phylicia Rashad Phylicia Rashad ...
Gilda
Whoopi Goldberg Whoopi Goldberg ...
Alice / White


screens
 
http://img143.imageshack.us/img143/8115/iocjta.jpg